<?xml version="1.0" encoding="UTF-8" standalone="no"?>
<!-- Created with Inkscape (http://www.inkscape.org/) -->

<svg
   xmlns:dc="http://purl.org/dc/elements/1.1/"
   xmlns:cc="http://creativecommons.org/ns#"
   xmlns:rdf="http://www.w3.org/1999/02/22-rdf-syntax-ns#"
   xmlns:svg="http://www.w3.org/2000/svg"
   xmlns="http://www.w3.org/2000/svg"
   xmlns:sodipodi="http://sodipodi.sourceforge.net/DTD/sodipodi-0.dtd"
   xmlns:inkscape="http://www.inkscape.org/namespaces/inkscape"
   width="260"
   height="260"
   viewBox="0 0 260 260"
   id="svg3439"
   version="1.1"
   inkscape:version="0.91 r13725"
   sodipodi:docname="3.svg">
  <defs
     id="defs3441">
    <inkscape:perspective
       sodipodi:type="inkscape:persp3d"
       inkscape:vp_x="0 : 130 : 1"
       inkscape:vp_y="0 : 1000 : 0"
       inkscape:vp_z="260 : 130 : 1"
       inkscape:persp3d-origin="130 : 86.666667 : 1"
       id="perspective4339" />
  </defs>
  <sodipodi:namedview
     id="base"
     pagecolor="#ffffff"
     bordercolor="#666666"
     borderopacity="1.0"
     inkscape:pageopacity="0.0"
     inkscape:pageshadow="2"
     inkscape:zoom="0.98994949"
     inkscape:document-units="px"
     inkscape:current-layer="layer1"
     showgrid="false"
     units="px"
     inkscape:window-width="1698"
     inkscape:window-height="1059"
     inkscape:window-x="0"
     inkscape:window-y="0"
     inkscape:window-maximized="0"
     inkscape:cx="-309.60494"
     inkscape:cy="269.23621" />
  <metadata
     id="metadata3444">
    <rdf:RDF>
      <cc:Work
         rdf:about="">
        <dc:format>image/svg+xml</dc:format>
        <dc:type
           rdf:resource="http://purl.org/dc/dcmitype/StillImage" />
        <dc:title />
      </cc:Work>
    </rdf:RDF>
  </metadata>
  <g
     inkscape:label="Layer 1"
     inkscape:groupmode="layer"
     id="layer1">
    <path
       inkscape:connector-curvature="0"
       id="path3452"
       d="m 115.32336,140.81437 13.5952,0 q 14.98562,0 24.71855,9.11496 9.88742,9.42394 10.1964,26.57243 -0.30898,16.83951 -10.1964,25.95448 -9.73293,9.73292 -23.94609,9.73292 -13.28622,0 -21.31975,-7.26107 -7.87903,-6.95209 -12.204779,-18.22993 l -32.288598,0 q 5.25269,28.11735 23.019144,42.94847 17.766453,14.83113 40.785603,14.83113 29.81674,-0.30898 48.81912,-19.00238 19.31136,-18.22993 19.62035,-49.90056 0,-14.21316 -6.02515,-27.1904 -6.33413,-12.97724 -20.54729,-22.24669 13.90418,-9.42395 19.31136,-21.47424 4.63473,-12.050289 4.63473,-25.027525 Q 193.18678,53.990475 175.8838,35.142585 157.80836,15.831222 127.06467,15.52224 102.8096,15.831222 85.352128,32.825222 67.585674,49.973712 65.11382,75.001238 l 32.288599,0 q 3.089821,-13.904181 12.050291,-20.54729 8.497,-6.643109 18.84789,-6.643109 14.36765,0.308982 23.48262,9.114963 9.11496,9.114964 9.42394,23.328127 0,14.058672 -9.11496,22.864661 -9.11496,9.11496 -25.64549,9.11496 l -11.12335,0 0,28.58082 z"
       style="fill:#ff5555" />
    <path
       sodipodi:nodetypes="ccc"
       inkscape:connector-curvature="0"
       id="path4170"
       d="M 1.9059327e-7,3.3905933e-6 130,130 260,260"
       style="display:inline;fill:#000000;fill-opacity:1;fill-rule:evenodd;stroke:#000000;stroke-width:1px;stroke-linecap:butt;stroke-linejoin:miter;stroke-opacity:1" />
  </g>
</svg>
